<?xml version="1.0" encoding="UTF-8" standalone="no"?>
<!DOCTYPE svg PUBLIC "-//W3C//DTD SVG 1.1//EN" "http://www.w3.org/Graphics/SVG/1.1/DTD/svg11.dtd">
<svg width="100%" height="100%" viewBox="0 0 337 646" version="1.1" xmlns="http://www.w3.org/2000/svg" xmlns:xlink="http://www.w3.org/1999/xlink" xml:space="preserve" xmlns:serif="http://www.serif.com/" style="fill-rule:evenodd;clip-rule:evenodd;stroke-linejoin:round;stroke-miterlimit:2;">
    <g id="Main-Outline" serif:id="Main Outline" transform="matrix(0.268023,0,0,0.268023,-187.806,-120.343)">
        <path d="M1956.56,2858.7L700.707,2858.7L700.707,2793.38L750.653,2760.69L750.653,985.113L700.707,985.145L700.707,828.242L745.422,828.242L745.422,751.739L788.091,751.739L788.091,679.086L1256.46,597.408L1256.46,567.696L1277.55,567.696L1277.55,466.16C1277.55,466.16 1290.85,449.004 1325.98,449.004C1361.1,449.004 1377.37,466.16 1377.37,466.16L1377.37,567.696L1397.44,567.696L1397.44,597.408L1872.27,679.086L1872.27,751.739L1906.68,751.739L1906.68,828.242L1956.56,828.242L1956.56,985.145L1906.68,985.145L1906.68,2760.72L1956.56,2793.38L1956.56,2858.7ZM1669.94,1027.06L1581.58,1027.06L1581.58,1193.11L1669.94,1193.11L1669.94,1027.06ZM1791.91,1027.06L1694.93,1027.06L1694.93,1193.11L1791.91,1193.11L1791.91,1027.06ZM1551.73,1216.33L1463.19,1216.33L1463.19,1385.05L1551.73,1385.05L1551.73,1216.33ZM1669.94,1216.33L1581.58,1216.33L1581.58,1385.05L1669.94,1385.05L1669.94,1216.33ZM1356.8,474.278L1330.77,474.278L1330.77,513.41L1356.8,513.41L1356.8,519.029L1330.77,519.029L1330.77,563.996L1324.52,563.996L1324.61,519.029L1296.79,519.029L1296.79,513.41L1324.62,513.41L1324.68,474.278L1296.79,474.278L1296.79,563.996L1356.8,563.996L1356.8,474.278ZM1791.91,1216.33L1694.93,1216.33L1694.93,1385.05L1791.91,1385.05L1791.91,1216.33ZM1889.3,840.885L773.421,840.885L773.421,971.101L1889.3,971.101L1889.3,840.885ZM962.236,1027.06L866.706,1027.06L866.706,1193.11L962.236,1193.11L962.236,1027.06ZM1082.36,1027.06L987.29,1027.06L987.29,1193.11L1082.36,1193.11L1082.36,1027.06ZM1197.33,1027.06L1104.32,1027.06L1104.32,1193.11L1197.33,1193.11L1197.33,1027.06ZM962.236,1216.33L866.706,1216.33L866.706,1385.05L962.236,1385.05L962.236,1216.33ZM1082.36,1216.33L987.29,1216.33L987.29,1385.05L1082.36,1385.05L1082.36,1216.33ZM1197.33,1216.33L1104.32,1216.33L1104.32,1385.05L1197.33,1385.05L1197.33,1216.33ZM1551.73,1027.06L1463.19,1027.06L1463.19,1193.11L1551.73,1193.11L1551.73,1027.06Z" style="fill:rgb(0,5,255);"/>
    </g>
    <g transform="matrix(0.268023,0,0,0.268023,-187.806,-120.343)">
        <path d="M1197.33,1903.12L1197.33,2289.44L866.706,2289.44L866.706,1903.12L1197.33,1903.12ZM1345.2,1027.06L1345.2,2739.03L1316.34,2739.03L1316.34,1027.06L1345.2,1027.06ZM1197.33,2355.26L1197.33,2739.03L866.706,2739.03L866.706,2355.26L1197.33,2355.26ZM1791.91,1903.12L1791.91,2289.44L1463.19,2289.44L1463.19,1903.12L1791.91,1903.12ZM1791.91,2355.26L1791.91,2739.03L1463.19,2739.03L1463.19,2355.26L1791.91,2355.26ZM1175.84,1468.36L1175.84,1818.38L885.371,1818.38L885.371,1468.36L1175.84,1468.36ZM1791.91,1449.24L1791.91,1835.68L1463.19,1835.68L1463.19,1449.24L1791.91,1449.24Z" style="fill:rgb(254,255,254);"/>
    </g>
    <g transform="matrix(0.264821,0,0,0.24966,-184.013,-103.871)">
        <path d="M1882.15,851.26L1882.15,962.873L779.867,962.873L779.867,851.26L1882.15,851.26ZM1177.13,1997.8L1177.13,2369.13L881.755,2369.13L881.755,1997.8L1177.13,1997.8ZM1177.13,2480.38L1177.13,2855.37L881.755,2855.37L881.755,2480.38L1177.13,2480.38ZM1781.79,2480.38L1781.79,2855.37L1487.32,2855.37L1487.32,2480.38L1781.79,2480.38ZM1781.79,1997.8L1781.79,2369.13L1487.32,2369.13L1487.32,1997.8L1781.79,1997.8ZM1781.79,1510.38L1781.79,1886.14L1487.32,1886.14L1487.32,1510.38L1781.79,1510.38Z" style="fill:rgb(0,3,255);"/>
    </g>
    <g transform="matrix(0.30054,0,0,0.268023,-230.953,-108.899)">
        <g transform="matrix(1.0643,0,0,1,-97.2322,0)">
            <g transform="matrix(111.519,0,0,111.519,1799.25,903.892)">
            </g>
            <text x="1543.11px" y="903.892px" style="font-family:'GillSans', 'Gill Sans', sans-serif;font-size:111.519px;fill:white;">BO<tspan x="1689.31px " y="903.892px ">X</tspan></text>
        </g>
    </g>
    <g transform="matrix(0.14496,0,0,0.14496,-50.6585,-10.3868)">
        <g transform="matrix(1.0643,0,0,1,-93.6479,0)">
            <text x="1479.93px" y="903.892px" style="font-family:'GillSans', 'Gill Sans', sans-serif;font-size:84.743px;fill:white;">PUBLIC</text>
        </g>
        <g transform="matrix(1.0643,0,0,1,-96.9188,0)">
            <g transform="matrix(84.7432,0,0,84.7432,1732.39,988.635)">
            </g>
            <text x="1507.25px" y="988.635px" style="font-family:'GillSans', 'Gill Sans', sans-serif;font-size:84.743px;fill:white;">C<tspan x="1569.23px 1625.75px " y="988.635px 988.635px ">AL</tspan>L</text>
        </g>
    </g>
    <g transform="matrix(0.158154,0,0,0.13138,-137.521,22.8901)">
        <g transform="matrix(227.506,0,0,227.506,1860.21,840.885)">
        </g>
        <text x="1050.5px" y="840.885px" style="font-family:'GillSans', 'Gill Sans', sans-serif;font-size:227.506px;fill:white;">POLICE</text>
    </g>
</svg>
